HIERARCHY
ROOT Hips
{
	OFFSET 0.00000 0.00000 0.00000
	CHANNELS 6 Xposition Yposition Zposition Zrotation Yrotation Xrotation 
	JOINT RightUpLegDummy
	{
		OFFSET 0 0 0
		CHANNELS 3 Zrotation Yrotation Xrotation
		JOINT RightUpLeg
		{
			OFFSET -3.52197 -3.41223 0.04002
			CHANNELS 3 Zrotation Yrotation Xrotation
			JOINT RightLeg
			{
				OFFSET 0.00006 -17.42390 1.60435
				CHANNELS 3 Zrotation Yrotation Xrotation
				JOINT RightFoot
				{
					OFFSET 0.06153 -16.50078 -1.63901
					CHANNELS 3 Zrotation Yrotation Xrotation
					JOINT RightToes
					{
						OFFSET 0.00298 -1.73825 3.34613
						CHANNELS 3 Zrotation Yrotation Xrotation
						End Site
						{
							OFFSET 0.00480 -0.05416 3.85043
						}
					}
				}
			}
		}
	}
	JOINT SpineDummy
	{
		OFFSET 0 0 0
		CHANNELS 3 Zrotation Yrotation Xrotation
		JOINT Spine
		{
			OFFSET 0.00000 4.68130 0.00000
			CHANNELS 3 Zrotation Yrotation Xrotation
			JOINT Spine1
			{
				OFFSET -0.00000 10.10138 0.05002
				CHANNELS 3 Zrotation Yrotation Xrotation
				JOINT HEadDummy
				{
					OFFSET 0 0 0
					CHANNELS 3 Zrotation Yrotation Xrotation
					JOINT Head
					{
						OFFSET -0.00000 3.43865 0.00438
						CHANNELS 3 Zrotation Yrotation Xrotation
						End Site
						{
							OFFSET -0.11417 5.02924 0.98962
						}
					}
				}
				JOINT LeftShoulder1Dummy
				{
					OFFSET 0 0 0
					CHANNELS 3 Zrotation Yrotation Xrotation
					JOINT LeftShoulder1
					{
						OFFSET 3.53937 -0.14262 -0.08662
						CHANNELS 3 Zrotation Yrotation Xrotation
						JOINT LeftArm
						{
							OFFSET 4.04833 -0.00133 0.12681
							CHANNELS 3 Zrotation Yrotation Xrotation
							JOINT LeftForeArm
							{
								OFFSET 10.33880 -0.01036 -0.55515
								CHANNELS 3 Zrotation Yrotation Xrotation
								JOINT LeftHand
								{
									OFFSET 8.69677 0.07543 0.40060
									CHANNELS 3 Zrotation Yrotation Xrotation
									End Site
									{
										OFFSET 5.28377 -0.21905 0.59205
									}
								}
							}
						}
					}
				}
				JOINT RightShoulderDummy
				{
					OFFSET 0 0 0
					CHANNELS 3 Zrotation Yrotation Xrotation
					JOINT RightShoulder
					{
						OFFSET -3.53937 -0.14262 -0.08660
						CHANNELS 3 Zrotation Yrotation Xrotation
						JOINT RightArm
						{
							OFFSET -4.04833 -0.00133 0.12683
							CHANNELS 3 Zrotation Yrotation Xrotation
							JOINT RightForeArm
							{
								OFFSET -10.37987 -0.01039 -0.55511
								CHANNELS 3 Zrotation Yrotation Xrotation
								JOINT RightHand
								{
									OFFSET -8.67398 0.07538 0.40058
									CHANNELS 3 Zrotation Yrotation Xrotation
									End Site
									{
										OFFSET -5.24810 -0.21916 0.59204
									}
								}
							}
						}
					}
				}
			}
		}
	}
	JOINT LeftUpLegDummy
	{
		OFFSET 0 0 0
		CHANNELS 3 Zrotation Yrotation Xrotation
		JOINT LeftUpLeg
		{
			OFFSET 3.52197 -3.41223 0.04002
			CHANNELS 3 Zrotation Yrotation Xrotation
			JOINT LeftLeg
			{
				OFFSET -0.00012 -17.42399 1.60337
				CHANNELS 3 Zrotation Yrotation Xrotation
				JOINT LeftFoot
				{
					OFFSET -0.09972 -16.50070 -1.63802
					CHANNELS 3 Zrotation Yrotation Xrotation
					JOINT LeftToes
					{
						OFFSET -0.01575 -1.73823 3.34611
						CHANNELS 3 Zrotation Yrotation Xrotation
						End Site
						{
							OFFSET 0.03150 -0.01868 3.85031
						}
					}
				}
			}
		}
	}
}
MOTION
Frames: 17
Frame Time: 0.033333
41.9892 39.7893 82.0285 -178.3320 1.7630 177.3370 0.0000 0.0000 0.0000 5.1034 0.2274 2.5454 -0.9868 -2.7711 3.1522 -4.6823 0.3205 -3.1586 0.0000 -0.0000 -0.0000 0.0000 0.0000 0.0000 0.5389 -0.1872 1.3851 3.3182 -0.8989 1.7297 -0.0000 0.0000 -0.0000 0.7640 3.7099 -5.5514 -0.0000 0.0000 -0.0000 -33.7513 -2.4467 2.3671 -44.9996 -14.0684 -16.6879 -10.9363 5.1104 48.5013 15.6521 -3.1587 -1.1295 -0.0000 0.0000 -0.0000 34.5224 5.1128 3.4908 40.6861 6.0175 -16.4868 10.7893 -1.2564 25.0525 -11.2233 1.2081 -0.6276 0.0000 0.0000 0.0000 0.7261 1.5624 1.4670 -0.1150 -0.2757 6.9908 3.8237 -0.1573 -5.8723 0.0000 0.0000 -0.0000
42.0018 39.7838 82.0808 -178.5260 2.3405 177.7280 0.0000 0.0000 0.0000 4.9373 0.3044 1.7507 -0.9930 -2.2275 3.6842 -4.6927 0.3215 -3.2474 0.0000 -0.0000 -0.0000 0.0000 0.0000 0.0000 0.3065 0.1146 1.1672 3.3587 -0.5816 1.6021 -0.0000 0.0000 -0.0000 0.7217 3.5996 -5.6125 -0.0000 0.0000 -0.0000 -33.6607 -2.4788 2.3744 -45.0430 -14.1675 -16.8402 -10.8253 5.1035 48.7847 15.5323 -3.5354 -1.1684 -0.0000 0.0000 -0.0000 34.5251 5.1128 3.4908 40.6615 6.0691 -16.5563 10.7668 -1.3420 24.9846 -11.5247 0.8039 -0.6067 0.0000 0.0000 0.0000 0.5405 1.4800 1.0363 -0.0517 0.3745 6.9306 3.7074 -0.1498 -5.7943 0.0000 0.0000 -0.0000
42.0081 39.7783 82.1247 -178.6510 2.8316 177.9910 0.0000 0.0000 0.0000 4.8300 0.3751 1.1798 -0.9836 -1.7805 4.0751 -4.6941 0.3217 -3.2987 0.0000 -0.0000 -0.0000 0.0000 0.0000 0.0000 0.1451 0.3609 1.0038 3.3943 -0.3254 1.5340 -0.0000 0.0000 -0.0000 0.6539 3.3919 -5.7790 -0.0000 0.0000 -0.0000 -33.6418 -2.5296 2.3934 -44.9897 -14.2499 -17.0405 -10.6963 5.0948 49.1343 15.3353 -4.0375 -1.2160 -0.0000 0.0000 -0.0000 34.5389 5.1128 3.4908 40.5584 6.0604 -16.4985 10.8146 -1.3417 24.4864 -12.4551 -0.3953 -0.5368 0.0000 0.0000 0.0000 0.4253 1.4408 0.7283 -0.0064 0.9010 6.9158 3.6336 -0.1451 -5.7535 0.0000 0.0000 -0.0000
41.9999 39.7777 82.1345 -178.6140 2.9057 177.9460 0.0000 0.0000 0.0000 4.8539 0.3797 1.2223 -0.9640 -1.7158 4.0550 -4.7005 0.3220 -3.2703 0.0000 -0.0000 -0.0000 0.0000 0.0000 0.0000 0.2055 0.3747 1.0152 3.3480 -0.3061 1.5906 -0.0000 0.0000 -0.0000 0.4299 3.1952 -6.3311 -0.0000 0.0000 -0.0000 -33.6589 -2.5535 2.4039 -44.8911 -14.2790 -17.0729 -10.6850 5.0925 49.2162 15.2866 -4.2811 -1.2424 -0.0000 0.0000 -0.0000 34.5530 5.1128 3.4908 40.4499 6.0062 -16.3248 10.9128 -1.2217 23.8693 -13.2804 -1.3733 -0.4687 0.0000 0.0000 0.0000 0.4562 1.4672 0.7480 -0.0014 0.9524 6.9626 3.6527 -0.1463 -5.7667 0.0000 0.0000 -0.0000
41.9884 39.7794 82.1411 -178.5690 2.8533 177.8700 0.0000 0.0000 0.0000 4.8837 0.3740 1.3413 -0.9656 -1.7661 3.9678 -4.7054 0.3222 -3.2280 0.0000 -0.0000 -0.0000 0.0000 0.0000 0.0000 0.2851 0.3129 1.0824 3.2721 -0.3589 1.6178 -0.0000 0.0000 -0.0000 -0.1421 2.8716 -7.4357 -0.0000 0.0000 -0.0000 -33.6166 -2.5445 2.3978 -44.8441 -14.2985 -16.9657 -10.7708 5.0969 49.0330 15.4457 -4.2854 -1.2564 -0.0000 0.0000 -0.0000 34.5368 5.1128 3.4908 40.4132 5.9917 -16.1916 10.9712 -1.1122 23.6881 -13.3481 -1.3057 -0.4773 0.0000 0.0000 0.0000 0.4832 1.4783 0.8046 -0.0015 0.8881 6.9874 3.6743 -0.1483 -5.7583 0.0000 0.0000 -0.0000
41.9799 39.7814 82.1578 -178.6100 2.8957 177.8470 0.0000 0.0000 0.0000 4.8391 0.3717 1.3117 -0.9870 -1.7166 4.0135 -4.6795 0.3205 -3.2204 0.0000 -0.0000 -0.0000 0.0000 0.0000 0.0000 0.2618 0.3006 1.1964 3.2245 -0.3571 1.5022 -0.0000 0.0000 -0.0000 -0.2060 3.0307 -8.0788 -0.0000 0.0000 -0.0000 -33.5616 -2.5431 2.3938 -44.8114 -14.2969 -16.8923 -10.8525 5.1028 48.7962 15.6620 -4.2050 -1.2644 -0.0000 0.0000 -0.0000 34.5105 5.1128 3.4908 40.4140 6.0008 -16.1206 10.9824 -1.0694 23.9396 -12.9377 -0.6122 -0.5356 0.0000 0.0000 0.0000 0.4166 1.4340 0.8338 0.0269 0.9690 6.9223 3.6520 -0.1476 -5.7046 0.0000 0.0000 -0.0000
41.9665 39.7834 82.1693 -178.6830 2.9493 177.7670 0.0000 0.0000 0.0000 4.7361 0.3110 1.3398 -0.9772 -1.6040 4.0818 -4.6388 0.3180 -3.2402 0.0000 -0.0000 -0.0000 0.0000 0.0000 0.0000 0.2520 0.2980 1.3910 3.1319 -0.3348 1.3169 -0.0000 0.0000 -0.0000 -0.2041 2.9603 -8.4183 -0.0000 0.0000 -0.0000 -33.5743 -2.5807 2.4095 -44.7056 -14.2404 -16.8993 -10.8916 5.1068 48.6444 15.8120 -4.0353 -1.2550 -0.0000 0.0000 -0.0000 34.4975 5.1128 3.4908 40.4094 5.9834 -16.0469 11.0001 -1.0543 24.1519 -12.7716 -0.2389 -0.5673 0.0000 0.0000 0.0000 0.2873 1.3416 0.9657 0.1002 1.1131 6.7925 3.6184 -0.1462 -5.6394 0.0000 0.0000 -0.0000
41.9416 39.7862 82.1732 -178.7340 2.8692 177.6720 0.0000 0.0000 0.0000 4.6038 0.1771 1.4268 -0.9110 -1.5546 4.0990 -4.6289 0.3174 -3.2643 0.0000 -0.0000 -0.0000 0.0000 0.0000 0.0000 0.3386 0.2292 1.5567 2.9409 -0.3670 1.1842 -0.0000 0.0000 -0.0000 -0.0230 2.8523 -8.3293 -0.0000 0.0000 -0.0000 -33.6338 -2.6313 2.4332 -44.5445 -14.1770 -16.8983 -10.9150 5.1078 48.5997 15.9320 -3.7529 -1.2281 -0.0000 0.0000 -0.0000 34.4742 5.1089 3.4872 40.4333 5.9820 -15.9791 11.0350 -1.0547 24.0232 -13.1168 -0.6093 -0.5429 0.0000 0.0000 0.0000 0.1380 1.2071 1.1072 0.2038 1.1705 6.6750 3.6063 -0.1462 -5.5778 0.0000 0.0000 -0.0000
41.9124 39.7881 82.1859 -178.7790 2.6715 177.7040 0.0000 0.0000 0.0000 4.4597 0.0424 1.3474 -0.8342 -1.6088 4.1473 -4.6409 0.3182 -3.2838 0.0000 -0.0000 -0.0000 0.0000 0.0000 0.0000 0.3873 0.1114 1.5850 2.8045 -0.4613 1.1064 -0.0000 0.0000 -0.0000 0.0855 2.8658 -8.1815 -0.0000 0.0000 -0.0000 -33.6682 -2.6377 2.4378 -44.4531 -14.1971 -16.8678 -10.9242 5.1052 48.6841 16.0654 -3.5302 -1.2094 -0.0000 0.0000 -0.0000 34.4283 5.0962 3.4781 40.4764 6.0465 -15.9321 11.0637 -1.0720 23.7392 -13.6163 -1.3177 -0.4858 0.0000 0.0000 0.0000 -0.0105 1.0571 1.0562 0.2840 1.1265 6.6089 3.6216 -0.1479 -5.5095 0.0000 0.0000 -0.0000
41.8905 39.7893 82.2074 -178.8240 2.4699 177.8050 0.0000 0.0000 0.0000 4.3426 -0.0419 1.1606 -0.7920 -1.7107 4.2341 -4.6256 0.3173 -3.2946 0.0000 -0.0000 -0.0000 0.0000 0.0000 0.0000 0.2659 0.0187 1.5798 2.9040 -0.5689 1.0015 -0.0000 0.0000 -0.0000 -0.0458 3.0942 -8.2908 -0.0000 0.0000 -0.0000 -33.6433 -2.5798 2.4134 -44.5214 -14.2916 -16.8611 -10.9064 5.1002 48.8622 16.1467 -3.5221 -1.2147 -0.0000 0.0000 -0.0000 34.4041 5.0910 3.4732 40.4336 6.1056 -15.8423 11.0957 -1.0602 23.6202 -13.8242 -1.7049 -0.4496 0.0000 0.0000 0.0000 -0.1127 0.9631 0.8989 0.2901 1.0238 6.5788 3.6662 -0.1515 -5.4488 0.0000 0.0000 -0.0000
41.8770 39.7900 82.2192 -178.8370 2.3484 177.8090 0.0000 0.0000 0.0000 4.2856 -0.0959 1.1272 -0.7672 -1.7746 4.2568 -4.5857 0.3147 -3.2950 0.0000 -0.0000 -0.0000 0.0000 0.0000 0.0000 0.1081 -0.0211 1.5890 3.0872 -0.6394 0.9942 -0.0000 0.0000 -0.0000 -0.3213 3.3898 -8.7429 -0.0000 0.0000 -0.0000 -33.4681 -2.4884 2.3666 -44.7850 -14.4372 -16.8614 -10.8770 5.0978 48.9592 16.1520 -3.5929 -1.2245 -0.0000 0.0000 -0.0000 34.3910 5.0893 3.4701 40.3480 6.1843 -15.7413 11.1250 -1.0634 23.7056 -13.7378 -1.6356 -0.4545 0.0000 0.0000 0.0000 -0.1317 0.9659 0.8653 0.2357 0.9055 6.5678 3.7193 -0.1556 -5.4254 0.0000 0.0000 -0.0000
41.8641 39.7905 82.2165 -178.8120 2.3144 177.7440 0.0000 0.0000 0.0000 4.2724 -0.1403 1.2284 -0.7323 -1.7683 4.2084 -4.5652 0.3134 -3.2941 0.0000 -0.0000 -0.0000 0.0000 0.0000 0.0000 0.1643 -0.0449 1.4212 2.9806 -0.6549 1.3339 -0.0000 0.0000 -0.0000 -0.5002 3.4597 -9.3584 -0.0000 0.0000 -0.0000 -33.0319 -2.4083 2.3090 -45.2231 -14.6903 -16.7987 -10.8541 5.1010 48.8587 16.2470 -3.5080 -1.2206 -0.0000 0.0000 -0.0000 34.3340 5.0900 3.4694 40.4111 6.4665 -15.7991 11.0990 -1.2260 23.7389 -13.7564 -1.6418 -0.4544 0.0000 0.0000 0.0000 -0.1047 1.0079 0.9333 0.1888 0.8296 6.5744 3.7367 -0.1572 -5.4354 0.0000 0.0000 -0.0000
41.8474 39.7902 82.2124 -178.7740 2.3162 177.7460 0.0000 0.0000 0.0000 4.2772 -0.1497 1.2478 -0.7131 -1.7535 4.1820 -4.5569 0.3129 -3.2924 0.0000 -0.0000 -0.0000 0.0000 0.0000 0.0000 0.2940 -0.0077 1.4384 2.7981 -0.5832 1.2510 -0.0000 0.0000 -0.0000 -0.5773 3.0806 -9.5798 -0.0000 0.0000 -0.0000 -32.8668 -2.4300 2.3076 -45.3048 -14.7135 -16.6377 -10.9459 5.1036 48.7318 16.5927 -3.2908 -1.2180 -0.0000 0.0000 -0.0000 34.3906 5.0947 3.4742 40.3862 6.4552 -15.9364 11.0896 -1.3301 23.3979 -14.1179 -2.1738 -0.4046 0.0000 0.0000 0.0000 -0.0895 1.0170 0.9267 0.1877 0.8148 6.5993 3.7232 -0.1567 -5.4533 0.0000 0.0000 -0.0000
41.8303 39.7883 82.2133 -178.7300 2.3130 177.7940 0.0000 0.0000 0.0000 4.3091 -0.1052 1.1858 -0.7410 -1.7911 4.1990 -4.5171 0.3103 -3.2889 0.0000 -0.0000 -0.0000 0.0000 0.0000 0.0000 0.4359 0.0426 1.4397 2.6211 -0.4990 1.1283 -0.0000 0.0000 -0.0000 -0.5383 2.6035 -9.6087 -0.0000 0.0000 -0.0000 -32.8327 -2.4997 2.3327 -45.2519 -14.7120 -16.4770 -11.0418 5.1034 48.6969 17.0295 -3.1173 -1.2269 -0.0000 0.0000 -0.0000 34.5156 5.1076 3.4903 40.3055 6.3810 -16.0026 11.1111 -1.3316 22.8775 -14.6198 -2.9453 -0.3267 0.0000 0.0000 0.0000 -0.0728 1.0202 0.8527 0.1914 0.8082 6.6430 3.7536 -0.1589 -5.4757 0.0000 0.0000 -0.0000
41.8163 39.7855 82.2155 -178.6790 2.3198 177.7890 0.0000 0.0000 0.0000 4.3627 -0.0454 1.1837 -0.7868 -1.8397 4.2079 -4.4579 0.3065 -3.2828 0.0000 -0.0000 -0.0000 0.0000 0.0000 0.0000 0.5111 0.0895 1.6008 2.5980 -0.4418 0.8394 -0.0000 0.0000 -0.0000 -0.4325 2.5650 -9.6698 -0.0000 0.0000 -0.0000 -32.9538 -2.5467 2.3582 -45.0972 -14.5704 -16.3652 -11.1375 5.1030 48.6691 17.2139 -3.0149 -1.2261 -0.0000 0.0000 -0.0000 34.5865 5.1201 3.5016 40.2285 6.1938 -15.8605 11.1876 -1.1839 22.6037 -14.8547 -3.2857 -0.2902 0.0000 0.0000 0.0000 -0.0161 1.0835 0.8351 0.1385 0.7684 6.6922 3.8653 -0.1661 -5.5054 0.0000 0.0000 -0.0000
41.8043 39.7843 82.2170 -178.6380 2.3443 177.7460 0.0000 0.0000 0.0000 4.3946 -0.0247 1.2366 -0.7988 -1.8382 4.1926 -4.4309 0.3047 -3.2727 0.0000 -0.0000 -0.0000 0.0000 0.0000 0.0000 0.5528 0.0826 1.8151 2.6685 -0.4559 0.5281 -0.0000 0.0000 -0.0000 -0.3750 3.1245 -9.9327 -0.0000 0.0000 -0.0000 -33.1868 -2.5228 2.3631 -44.8654 -14.3034 -16.3100 -11.2320 5.1070 48.4894 17.0675 -2.8579 -1.1933 -0.0000 0.0000 -0.0000 34.4189 5.1056 3.4811 40.3447 6.0842 -15.6395 11.2511 -1.0796 22.7903 -14.7161 -3.0349 -0.3177 0.0000 0.0000 0.0000 0.0578 1.1893 0.8717 0.0366 0.7115 6.7202 3.9858 -0.1731 -5.5276 0.0000 0.0000 -0.0000
41.7919 39.7837 82.2197 -178.6100 2.3460 177.7200 0.0000 0.0000 0.0000 4.3983 -0.0378 1.2772 -0.7827 -1.8252 4.1604 -4.4360 0.3050 -3.2553 0.0000 -0.0000 -0.0000 0.0000 0.0000 0.0000 0.5451 0.0403 1.8718 2.8171 -0.5258 0.4539 -0.0000 0.0000 -0.0000 -0.4463 3.7838 -10.2701 -0.0000 0.0000 -0.0000 -33.4776 -2.4882 2.3671 -44.6155 -14.1103 -16.3246 -11.2741 5.1125 48.2827 16.8648 -2.6711 -1.1526 -0.0000 0.0000 -0.0000 34.0833 5.0729 3.4387 40.5897 6.1482 -15.5012 11.2559 -1.0738 23.1251 -14.4436 -2.6640 -0.3562 0.0000 0.0000 0.0000 0.1081 1.2660 0.8917 -0.0464 0.6519 6.7308 4.0281 -0.1752 -5.5391 0.0000 0.0000 -0.0000
